<?xml version="1.0" standalone="no"?>
<!DOCTYPE svg PUBLIC "-//W3C//DTD SVG 20010904//EN"
 "http://www.w3.org/TR/2001/REC-SVG-20010904/DTD/svg10.dtd">
<svg version="1.0" xmlns="http://www.w3.org/2000/svg"
 width="521.000000pt" height="521.000000pt" viewBox="0 0 521.000000 521.000000"
 preserveAspectRatio="xMidYMid meet">
<metadata>
Created by potrace 1.11, written by Peter Selinger 2001-2013
</metadata>
<g transform="translate(0.000000,521.000000) scale(0.100000,-0.100000)"
fill="#000000" stroke="none">
<path d="M2440 4909 c-532 -36 -1051 -268 -1439 -643 -559 -543 -810 -1316
-671 -2073 104 -567 406 -1060 870 -1424 310 -242 700 -403 1120 -460 142 -20
470 -17 610 4 383 59 713 193 1025 415 122 87 181 138 303 262 634 644 829
1603 500 2455 -175 451 -510 854 -933 1122 -397 251 -899 375 -1385 342z m279
-379 c268 -44 486 -240 557 -500 23 -88 23 -262 0 -350 -50 -185 -185 -348
-356 -433 -223 -109 -473 -99 -680 28 -89 55 -148 110 -200 185 -91 134 -123
235 -124 390 0 130 13 189 72 310 38 79 59 109 127 176 66 66 99 90 176 127
142 70 277 91 428 67z m-1009 -448 c0 -4 -9 -39 -19 -77 -26 -96 -88 -374
-101 -460 -26 -160 -14 -176 285 -367 187 -120 437 -272 552 -337 80 -46 92
-58 67 -68 -10 -4 -59 -31 -109 -60 -49 -30 -98 -52 -107 -49 -20 5 -155 84
-458 268 -225 137 -319 178 -406 178 -35 0 -117 -29 -356 -126 -171 -69 -312
-123 -314 -121 -6 6 -105 359 -101 363 1 2 127 15 277 29 153 15 294 33 317
41 56 20 108 76 135 144 19 47 22 74 22 180 0 123 -21 296 -48 398 -7 29 -13
52 -12 52 1 0 51 3 111 7 61 3 112 7 114 9 8 8 151 4 151 -4z m2023 -2 c71 -4
131 -11 134 -13 3 -3 -2 -37 -11 -75 -8 -37 -23 -139 -33 -226 -25 -229 -6
-336 74 -422 46 -50 97 -61 393 -89 150 -14 276 -27 277 -29 4 -4 -94 -356
-100 -363 -3 -2 -144 53 -315 122 -338 136 -353 140 -460 109 -32 -9 -82 -32
-113 -50 -31 -19 -61 -34 -67 -34 -6 0 -12 -3 -14 -8 -5 -12 -279 -177 -768
-461 -135 -79 -270 -158 -300 -176 -30 -17 -113 -67 -185 -109 -380 -225 -660
-418 -747 -514 -40 -44 -41 -49 -63 -292 -8 -96 -18 -203 -21 -237 -3 -38 -10
-63 -17 -63 -7 -1 -77 -9 -157 -19 -80 -11 -147 -17 -149 -15 -6 5 48 203 109
402 68 222 66 296 -11 355 -19 14 -149 71 -289 127 -140 56 -256 103 -258 105
-2 2 35 80 83 174 l85 171 138 -103 c192 -145 296 -215 369 -250 60 -27 66
-28 116 -17 66 15 210 85 352 170 160 96 473 283 520 310 22 13 132 77 245
143 113 66 243 142 290 170 173 100 635 392 699 442 79 61 93 92 86 185 -6 68
-57 315 -100 484 -14 54 -25 100 -25 102 0 6 95 4 233 -6z m-716 -1586 c43
-26 87 -52 98 -58 11 -6 117 -69 235 -140 233 -140 322 -185 418 -212 l62 -17
74 37 c41 20 132 78 203 128 149 108 138 99 183 136 19 16 52 41 72 56 l37 28
86 -172 c47 -95 85 -173 83 -175 -2 -2 -118 -49 -258 -105 -140 -56 -270 -113
-289 -127 -78 -60 -79 -147 -3 -386 55 -172 108 -365 101 -371 -4 -3 -312 33
-316 38 -2 1 -10 85 -18 187 -25 299 -33 349 -60 385 -70 92 -461 362 -825
569 -158 91 -201 117 -198 121 17 16 207 123 220 124 10 0 52 -21 95 -46z
m-275 -484 c77 -23 164 -83 202 -138 30 -44 60 -131 69 -205 l7 -48 -127 3
-127 3 -8 42 c-9 57 -23 80 -61 103 -40 25 -116 26 -163 4 -64 -30 -94 -113
-65 -181 15 -37 73 -70 191 -108 183 -59 283 -134 343 -255 29 -59 32 -73 32
-160 0 -91 -2 -100 -38 -172 -79 -160 -246 -251 -427 -234 -234 23 -364 153
-395 394 l-7 52 131 0 131 0 0 -29 c0 -132 134 -217 255 -162 104 47 137 170
68 252 -30 36 -74 56 -224 105 -201 65 -290 149 -318 298 -20 110 18 246 92
325 108 114 285 159 439 111z"/>
<path d="M2493 4285 c-121 -33 -223 -113 -276 -216 -143 -284 19 -608 327
-652 268 -39 497 163 497 437 1 136 -45 242 -144 333 -106 98 -263 136 -404
98z"/>
</g>
</svg>
